<?xml version="1.0" encoding="UTF-8" standalone="no"?>
<!-- Generator: Adobe Illustrator 19.0.0, SVG Export Plug-In . SVG Version: 6.00 Build 0)  -->

<svg
   xmlns:dc="http://purl.org/dc/elements/1.1/"
   xmlns:cc="http://creativecommons.org/ns#"
   xmlns:rdf="http://www.w3.org/1999/02/22-rdf-syntax-ns#"
   xmlns:svg="http://www.w3.org/2000/svg"
   xmlns="http://www.w3.org/2000/svg"
   xmlns:sodipodi="http://sodipodi.sourceforge.net/DTD/sodipodi-0.dtd"
   xmlns:inkscape="http://www.inkscape.org/namespaces/inkscape"
   version="1.1"
   id="Capa_1"
   x="0px"
   y="0px"
   viewBox="0 0 504.227 504.227"
   style="enable-background:new 0 0 504.227 504.227;"
   xml:space="preserve"
   width="512"
   height="512"
   sodipodi:docname="flashlight.svg"
   inkscape:version="0.92.3 (2405546, 2018-03-11)"><metadata
   id="metadata33"><rdf:RDF><cc:Work
       rdf:about=""><dc:format>image/svg+xml</dc:format><dc:type
         rdf:resource="http://purl.org/dc/dcmitype/StillImage" /></cc:Work></rdf:RDF></metadata><defs
   id="defs31" /><sodipodi:namedview
   pagecolor="#ffffff"
   bordercolor="#666666"
   borderopacity="1"
   objecttolerance="10"
   gridtolerance="10"
   guidetolerance="10"
   inkscape:pageopacity="0"
   inkscape:pageshadow="2"
   inkscape:window-width="1920"
   inkscape:window-height="1043"
   id="namedview29"
   showgrid="false"
   inkscape:zoom="2.6074563"
   inkscape:cx="249.31638"
   inkscape:cy="376.53772"
   inkscape:window-x="0"
   inkscape:window-y="0"
   inkscape:window-maximized="1"
   inkscape:current-layer="g26" />
<g
   id="g26">
	<path
   style="fill:#e95b2d"
   d="m 139.689,166.36 v 87.542 c 0,29.271 23.729,53 53,53 h 118.849 c 29.271,0 53,-23.729 53,-53 V 166.36 Z"
   id="path2"
   inkscape:connector-curvature="0" />
	<rect
   x="192.689"
   y="306.90201"
   style="fill:#e95b2d"
   width="118.849"
   height="189.825"
   id="rect4" />
	<rect
   x="236.856"
   y="339.36099"
   style="fill:#faba45"
   width="30.514999"
   height="53.751999"
   id="rect6" />
	
	<path
   style="fill:#0f2639"
   d="m 339.763,158.86 c -18.877,-29.999 -52.056,-48.464 -87.65,-48.464 -35.594,0 -68.773,18.465 -87.65,48.464 h -32.274 v 95.042 c 0,30.819 23.169,56.311 53,60.019 V 504.227 H 319.038 V 313.921 c 29.831,-3.708 53,-29.2 53,-60.019 V 158.86 Z m 17.275,15 v 16.253 H 343.932 V 173.86 h 4.519 z m -168.637,0 v 16.253 H 175.295 V 173.86 Z m 15,0 h 13.106 v 16.253 h -13.106 z m 28.107,0 h 13.106 v 16.253 h -13.106 z m 28.106,0 h 13.106 v 16.253 h -13.106 z m 28.105,0 h 13.106 v 16.253 h -13.106 z m 28.106,0 h 13.106 v 16.253 h -13.106 z m -63.711,-48.464 c 27.142,0 52.648,12.552 69.3,33.464 H 182.813 c 16.653,-20.912 42.159,-33.464 69.301,-33.464 z m -96.337,48.464 h 4.518 v 16.253 H 147.189 V 173.86 Z m 44.412,315.367 V 314.402 h 103.849 v 144.161 h -91.347 v 15 h 91.347 v 15.664 z M 311.538,299.402 H 192.689 c -25.089,0 -45.5,-20.411 -45.5,-45.5 v -48.789 h 209.849 v 48.789 c 0,25.089 -20.411,45.5 -45.5,45.5 z"
   id="path10"
   inkscape:connector-curvature="0" />
	<path
   style="fill:#0f2639"
   d="m 274.871,331.861 h -45.515 v 68.752 h 45.515 z m -15,15 v 11.876 h -15.515 v -11.876 z m -15.515,38.752 v -11.876 h 15.515 v 11.876 z"
   id="path12"
   inkscape:connector-curvature="0" />
	
	
	
		
	
		
	
		
	
		
</g>















</svg>