<?xml version="1.0" encoding="UTF-8" standalone="no"?>
<!-- Generator: Adobe Illustrator 19.0.0, SVG Export Plug-In . SVG Version: 6.00 Build 0)  -->

<svg
   xmlns:dc="http://purl.org/dc/elements/1.1/"
   xmlns:cc="http://creativecommons.org/ns#"
   xmlns:rdf="http://www.w3.org/1999/02/22-rdf-syntax-ns#"
   xmlns:svg="http://www.w3.org/2000/svg"
   xmlns="http://www.w3.org/2000/svg"
   xmlns:sodipodi="http://sodipodi.sourceforge.net/DTD/sodipodi-0.dtd"
   xmlns:inkscape="http://www.inkscape.org/namespaces/inkscape"
   version="1.1"
   id="Layer_1"
   x="0px"
   y="0px"
   viewBox="0 0 512 512"
   style="enable-background:new 0 0 512 512;"
   xml:space="preserve"
   sodipodi:docname="flashlight.svg"
   inkscape:version="0.92.3 (2405546, 2018-03-11)"><metadata
   id="metadata61"><rdf:RDF><cc:Work
       rdf:about=""><dc:format>image/svg+xml</dc:format><dc:type
         rdf:resource="http://purl.org/dc/dcmitype/StillImage" /><dc:title></dc:title></cc:Work></rdf:RDF></metadata><defs
   id="defs59" /><sodipodi:namedview
   pagecolor="#ffffff"
   bordercolor="#666666"
   borderopacity="1"
   objecttolerance="10"
   gridtolerance="10"
   guidetolerance="10"
   inkscape:pageopacity="0"
   inkscape:pageshadow="2"
   inkscape:window-width="1920"
   inkscape:window-height="1043"
   id="namedview57"
   showgrid="false"
   inkscape:zoom="1.3037281"
   inkscape:cx="383.311"
   inkscape:cy="270.97161"
   inkscape:window-x="0"
   inkscape:window-y="0"
   inkscape:window-maximized="1"
   inkscape:current-layer="Layer_1" />
<polygon
   style="fill:#F9EDB2;"
   points="511.586,162.558 298.679,307.158 204.428,212.908 349.029,0 "
   id="polygon2" />

<path
   style="fill:#2D2E30;"
   d="M200.215,417.878c2.904,2.904,4.134,7.087,3.264,11.101c-0.871,4.014-3.722,7.311-7.568,8.752  l-89.662,33.574L87.634,452.69l73.697-73.697L200.215,417.878z"
   id="path6" />
<path
   style="fill:#E1E1E3;"
   d="M289.505,298.244L83.881,503.868c-10.669,10.669-27.968,10.669-38.638,0L8.417,467.04  c-10.669-10.669-10.669-27.968,0-38.638l205.624-205.623L289.505,298.244z"
   id="path8" />
<path
   style="fill:#9E9E9E;"
   d="M168.219,344.064L168.219,344.064L26.83,485.454l18.636,18.636c10.547,10.547,27.647,10.547,38.195,0  l205.845-205.846l-37.732-37.732L168.219,344.064z"
   id="path10" />
<path
   style="fill:#f7dc4d;fill-opacity:0;opacity:1;stroke:#000000;stroke-opacity:1"
   d="M281.09,323.221c7.434-10.696,11.803-23.681,11.803-37.693c0-36.527-29.611-66.138-66.138-66.138  c-14.012,0-26.997,4.369-37.693,11.803C219.738,261.87,250.414,292.545,281.09,323.221z"
   id="path12" />

<path
   style="fill:#9B0700;"
   d="M260.106,346.124l-18.761,18.762c-5.108,5.108-13.39,5.108-18.499,0l-75.448-75.448  c-5.108-5.108-5.108-13.39,0-18.499l18.762-18.762c5.108-5.108,13.39-5.108,18.499,0l75.448,75.448  C265.215,332.733,265.215,341.015,260.106,346.124z"
   id="path16" />
<path
   style="fill:#6D0000;"
   d="M185.123,327.161l37.83,37.83c5.05,5.05,13.237,5.05,18.287,0l18.973-18.973  c5.05-5.05,5.049-13.237,0-18.287l-37.83-37.83L185.123,327.161z"
   id="path18" />
<path
   style="fill:#DE3205;"
   d="M298.556,330.237l-23.266,23.266c-6.335,6.335-16.606,6.335-22.942,0l-93.567-93.567  c-6.335-6.335-6.335-16.606,0-22.942l23.266-23.266c6.335-6.335,16.606-6.335,22.942,0l93.567,93.567  C304.891,313.63,304.891,323.901,298.556,330.237z"
   id="path20" />
<path
   style="fill:#9D2217;"
   d="M205.565,306.72l46.915,46.915c6.263,6.263,16.415,6.263,22.678,0l23.53-23.53  c6.263-6.263,6.263-16.415,0-22.678l-46.915-46.915L205.565,306.72z"
   id="path22" />
<rect
   x="166.688"
   y="281.431"
   transform="matrix(-0.7071 0.7071 -0.7071 -0.7071 539.8206 446.125)"
   style="fill:#9E9E9E;"
   width="21.653"
   height="106.864"
   id="rect24" />
<g
   id="g26">
</g>
<g
   id="g28">
</g>
<g
   id="g30">
</g>
<g
   id="g32">
</g>
<g
   id="g34">
</g>
<g
   id="g36">
</g>
<g
   id="g38">
</g>
<g
   id="g40">
</g>
<g
   id="g42">
</g>
<g
   id="g44">
</g>
<g
   id="g46">
</g>
<g
   id="g48">
</g>
<g
   id="g50">
</g>
<g
   id="g52">
</g>
<g
   id="g54">
</g>
</svg>