<?xml version="1.0" encoding="UTF-8" standalone="no"?>
<!-- Generator: Adobe Illustrator 19.0.0, SVG Export Plug-In . SVG Version: 6.00 Build 0)  -->

<svg
   xmlns:dc="http://purl.org/dc/elements/1.1/"
   xmlns:cc="http://creativecommons.org/ns#"
   xmlns:rdf="http://www.w3.org/1999/02/22-rdf-syntax-ns#"
   xmlns:svg="http://www.w3.org/2000/svg"
   xmlns="http://www.w3.org/2000/svg"
   xmlns:sodipodi="http://sodipodi.sourceforge.net/DTD/sodipodi-0.dtd"
   xmlns:inkscape="http://www.inkscape.org/namespaces/inkscape"
   version="1.1"
   id="Layer_1"
   x="0px"
   y="0px"
   viewBox="0 0 512 512"
   style="enable-background:new 0 0 512 512;"
   xml:space="preserve"
   sodipodi:docname="light.svg"
   inkscape:version="0.92.3 (2405546, 2018-03-11)"
   inkscape:label="light"><metadata
   id="metadata61"><rdf:RDF><cc:Work
       rdf:about=""><dc:format>image/svg+xml</dc:format><dc:type
         rdf:resource="http://purl.org/dc/dcmitype/StillImage" /><dc:title /></cc:Work></rdf:RDF></metadata><defs
   id="defs59" /><sodipodi:namedview
   pagecolor="#ffffff"
   bordercolor="#666666"
   borderopacity="1"
   objecttolerance="10"
   gridtolerance="10"
   guidetolerance="10"
   inkscape:pageopacity="0"
   inkscape:pageshadow="2"
   inkscape:window-width="1920"
   inkscape:window-height="1043"
   id="namedview57"
   showgrid="false"
   inkscape:zoom="1.3037281"
   inkscape:cx="240.94516"
   inkscape:cy="332.33409"
   inkscape:window-x="0"
   inkscape:window-y="0"
   inkscape:window-maximized="1"
   inkscape:current-layer="Layer_1" />
<polygon
   style="opacity:1;fill:#f9edb2;image-rendering:auto"
   points="204.428,212.908 349.029,0 511.586,162.558 298.679,307.158 "
   id="polygon2"
   transform="translate(0.3010914,0.1362486)"
   inkscape:label="light" />










<g
   id="g3743"
   inkscape:label="flashlight"
   style="display:none"><g
     id="g3730"><g
       id="g899"
       inkscape:label="flashlight"><path
         id="path6"
         d="m 200.215,417.878 c 2.904,2.904 4.134,7.087 3.264,11.101 -0.871,4.014 -3.722,7.311 -7.568,8.752 l -89.662,33.574 -18.615,-18.615 73.697,-73.697 z"
         style="fill:#2d2e30"
         inkscape:connector-curvature="0" /><path
         id="path8"
         d="M 289.505,298.244 83.881,503.868 c -10.669,10.669 -27.968,10.669 -38.638,0 L 8.417,467.04 c -10.669,-10.669 -10.669,-27.968 0,-38.638 L 214.041,222.779 Z"
         style="fill:#e1e1e3"
         inkscape:connector-curvature="0" /><path
         id="path10"
         d="m 168.219,344.064 v 0 L 26.83,485.454 45.466,504.09 c 10.547,10.547 27.647,10.547 38.195,0 L 289.506,298.244 251.774,260.512 Z"
         style="fill:#9e9e9e"
         inkscape:connector-curvature="0" /><path
         id="path12"
         d="m 281.09,323.221 c 7.434,-10.696 11.803,-23.681 11.803,-37.693 0,-36.527 -29.611,-66.138 -66.138,-66.138 -14.012,0 -26.997,4.369 -37.693,11.803 30.676,30.677 61.352,61.352 92.028,92.028 z"
         style="opacity:1;fill:#f7dc4d;fill-opacity:0;stroke:#000000;stroke-opacity:1"
         inkscape:connector-curvature="0" /><path
         id="path16"
         d="m 260.106,346.124 -18.761,18.762 c -5.108,5.108 -13.39,5.108 -18.499,0 l -75.448,-75.448 c -5.108,-5.108 -5.108,-13.39 0,-18.499 l 18.762,-18.762 c 5.108,-5.108 13.39,-5.108 18.499,0 l 75.448,75.448 c 5.108,5.108 5.108,13.39 -0.001,18.499 z"
         style="fill:#9b0700"
         inkscape:connector-curvature="0" /><path
         id="path18"
         d="m 185.123,327.161 37.83,37.83 c 5.05,5.05 13.237,5.05 18.287,0 l 18.973,-18.973 c 5.05,-5.05 5.049,-13.237 0,-18.287 l -37.83,-37.83 z"
         style="fill:#6d0000"
         inkscape:connector-curvature="0" /><path
         id="path20"
         d="m 298.556,330.237 -23.266,23.266 c -6.335,6.335 -16.606,6.335 -22.942,0 l -93.567,-93.567 c -6.335,-6.335 -6.335,-16.606 0,-22.942 l 23.266,-23.266 c 6.335,-6.335 16.606,-6.335 22.942,0 l 93.567,93.567 c 6.335,6.335 6.335,16.606 0,22.942 z"
         style="fill:#de3205"
         inkscape:connector-curvature="0" /><path
         id="path22"
         d="m 205.565,306.72 46.915,46.915 c 6.263,6.263 16.415,6.263 22.678,0 l 23.53,-23.53 c 6.263,-6.263 6.263,-16.415 0,-22.678 l -46.915,-46.915 z"
         style="fill:#9d2217"
         inkscape:connector-curvature="0" /><rect
         id="rect24"
         height="106.864"
         width="21.653"
         style="fill:#9e9e9e"
         transform="matrix(-0.7071,0.7071,-0.7071,-0.7071,539.8206,446.125)"
         y="281.431"
         x="166.688" /></g></g></g>















</svg>